<svg xmlns="http://www.w3.org/2000/svg" viewBox="0 0 64 80" x="0px" y="0px"><title>theodolite</title><g><path d="M27,21H24a2,2,0,0,1-2-2V9a2,2,0,0,1,2-2h3a2,2,0,0,1,2,2v2.34l-.2.26a4,4,0,0,0,0,4.8l.2.26V19A2,2,0,0,1,27,21ZM24,9V19h3V17.32a6,6,0,0,1,0-6.64V9Z"/><path d="M40,21H37a2,2,0,0,1-2-2V16.66l.2-.26a4,4,0,0,0,0-4.8l-.2-.26V9a2,2,0,0,1,2-2h3a2,2,0,0,1,2,2V19A2,2,0,0,1,40,21Zm-3-3.68V19h3V9H37v1.68a6,6,0,0,1,0,6.64Z"/><path d="M32,20a6.05,6.05,0,0,1-4.8-2.4,6,6,0,0,1,0-7.2,6,6,0,0,1,9.6,0,6,6,0,0,1,0,7.2A6,6,0,0,1,32,20Zm0-10a4,4,0,0,0-3.2,1.6,4,4,0,0,0,0,4.8,4,4,0,0,0,6.4,0,4,4,0,0,0,0-4.8A4,4,0,0,0,32,10Z"/><path d="M39,26H25V19h2V14l1.8,2.39a4,4,0,0,0,6.4,0L37,14v5h2ZM27,24H37V21a2,2,0,0,1-2-1.81,6.15,6.15,0,0,1-6,0A2,2,0,0,1,27,21Z"/><path d="M37,30H27a2,2,0,0,1-2-2V24H39v4A2,2,0,0,1,37,30ZM27,26v2H37V26Z"/><rect x="22" y="24" width="4" height="2"/><rect x="21" y="22" width="2" height="6"/><path d="M37,14,35.2,11.6a4,4,0,0,0-6.4,0L27,14V9H23.52l2.8-7H37.68l2.8,7H37ZM32,8a6.09,6.09,0,0,1,3,.81A2,2,0,0,1,37,7h.52l-1.2-3H27.68l-1.2,3H27a2,2,0,0,1,2,1.81A6.09,6.09,0,0,1,32,8Z"/><path d="M12,62a1,1,0,0,1-.49-.13,1,1,0,0,1-.38-1.36l18-32a1,1,0,0,1,1.74,1l-18,32A1,1,0,0,1,12,62Z"/><path d="M52,62a1,1,0,0,1-.87-.51l-18-32a1,1,0,1,1,1.74-1l18,32a1,1,0,0,1-.38,1.36A1,1,0,0,1,52,62Z"/><path d="M32,62a1,1,0,0,1-1-1V29a1,1,0,0,1,2,0V61A1,1,0,0,1,32,62Z"/></g><text x="0" y="79" fill="#000000" font-size="5px" font-weight="bold" font-family="'Helvetica Neue', Helvetica, Arial-Unicode, Arial, Sans-serif">Created by tezar tantular</text><text x="0" y="84" fill="#000000" font-size="5px" font-weight="bold" font-family="'Helvetica Neue', Helvetica, Arial-Unicode, Arial, Sans-serif">from the Noun Project</text></svg>